<svg aria-hidden="true" style="position: absolute; width: 0; height: 0; overflow: hidden;" version="1.1" xmlns="http://www.w3.org/2000/svg" xmlns:xlink="http://www.w3.org/1999/xlink">
<defs>

    <symbol id="icon-facebook" viewBox="0 0 32 32">
        <path d="M16 0c-8.821 0-16 7.179-16 16s7.179 16 16 16c8.821 0 16-7.179 16-16s-7.179-16-16-16zM16 2.667c7.38 0 13.333 5.953 13.333 13.333 0.003 3.192-1.141 6.279-3.225 8.697s-4.967 4.007-8.124 4.475v-9.284h3.797l0.596-3.857h-4.393v-2.107c0-1.6 0.527-3.023 2.024-3.023h2.407v-3.365c-0.423-0.057-1.317-0.181-3.008-0.181-3.531 0-5.6 1.864-5.6 6.112v2.564h-3.629v3.857h3.629v9.251c-3.114-0.512-5.944-2.115-7.984-4.522s-3.159-5.461-3.156-8.616c0-7.38 5.953-13.333 13.333-13.333z"></path>
    </symbol>

    <symbol id="icon-instagram" viewBox="0 0 32 32">
        <path d="M24.544 5.536c-0.38 0-0.751 0.113-1.067 0.324s-0.562 0.511-0.707 0.862c-0.145 0.351-0.183 0.737-0.109 1.109s0.257 0.715 0.525 0.983c0.268 0.268 0.611 0.451 0.983 0.525s0.758 0.036 1.109-0.109c0.351-0.145 0.651-0.391 0.862-0.707s0.324-0.687 0.324-1.067c0-0.509-0.202-0.998-0.562-1.358s-0.848-0.562-1.358-0.562zM31.904 9.408c-0.031-1.328-0.28-2.641-0.736-3.888-0.407-1.067-1.040-2.033-1.856-2.832-0.792-0.82-1.761-1.449-2.832-1.84-1.244-0.47-2.559-0.724-3.888-0.752-1.696-0.096-2.24-0.096-6.592-0.096s-4.896 0-6.592 0.096c-1.329 0.028-2.644 0.282-3.888 0.752-1.069 0.395-2.037 1.023-2.832 1.84-0.82 0.792-1.449 1.761-1.84 2.832-0.47 1.244-0.724 2.559-0.752 3.888-0.096 1.696-0.096 2.24-0.096 6.592s0 4.896 0.096 6.592c0.028 1.329 0.282 2.644 0.752 3.888 0.391 1.071 1.020 2.040 1.84 2.832 0.795 0.817 1.763 1.445 2.832 1.84 1.244 0.47 2.559 0.724 3.888 0.752 1.696 0.096 2.24 0.096 6.592 0.096s4.896 0 6.592-0.096c1.329-0.028 2.644-0.282 3.888-0.752 1.071-0.391 2.040-1.020 2.832-1.84 0.82-0.796 1.453-1.763 1.856-2.832 0.456-1.247 0.705-2.56 0.736-3.888 0-1.696 0.096-2.24 0.096-6.592s0-4.896-0.096-6.592zM29.024 22.4c-0.012 1.016-0.196 2.022-0.544 2.976-0.256 0.696-0.666 1.325-1.2 1.84-0.519 0.529-1.147 0.938-1.84 1.2-0.954 0.348-1.96 0.532-2.976 0.544-1.6 0.080-2.192 0.096-6.4 0.096s-4.8 0-6.4-0.096c-1.055 0.020-2.105-0.143-3.104-0.48-0.663-0.275-1.262-0.684-1.76-1.2-0.531-0.514-0.936-1.144-1.184-1.84-0.391-0.968-0.607-1.997-0.64-3.040 0-1.6-0.096-2.192-0.096-6.4s0-4.8 0.096-6.4c0.007-1.038 0.197-2.067 0.56-3.040 0.282-0.675 0.714-1.277 1.264-1.76 0.486-0.55 1.087-0.987 1.76-1.28 0.975-0.352 2.003-0.536 3.040-0.544 1.6 0 2.192-0.096 6.4-0.096s4.8 0 6.4 0.096c1.016 0.012 2.022 0.196 2.976 0.544 0.727 0.27 1.38 0.709 1.904 1.28 0.524 0.492 0.934 1.092 1.2 1.76 0.356 0.974 0.54 2.003 0.544 3.040 0.080 1.6 0.096 2.192 0.096 6.4s-0.016 4.8-0.096 6.4zM16 7.792c-1.623 0.003-3.208 0.487-4.556 1.391s-2.397 2.187-3.016 3.687c-0.619 1.5-0.779 3.15-0.461 4.741s1.102 3.052 2.25 4.199c1.149 1.146 2.611 1.926 4.203 2.242s3.241 0.152 4.74-0.47c1.499-0.622 2.78-1.674 3.681-3.023s1.382-2.936 1.382-4.558c0.002-1.080-0.209-2.149-0.622-3.147s-1.019-1.904-1.783-2.667-1.672-1.367-2.671-1.778c-0.999-0.411-2.069-0.62-3.148-0.616zM16 21.328c-1.054 0-2.084-0.312-2.96-0.898s-1.559-1.418-1.962-2.391c-0.403-0.973-0.509-2.045-0.303-3.078s0.713-1.983 1.458-2.728c0.745-0.745 1.694-1.253 2.728-1.458s2.105-0.1 3.078 0.303c0.974 0.403 1.806 1.086 2.391 1.962s0.898 1.906 0.898 2.96c0 0.7-0.138 1.392-0.406 2.039s-0.66 1.234-1.155 1.729c-0.495 0.495-1.082 0.887-1.729 1.155s-1.339 0.406-2.039 0.406z"></path>
    </symbol>

    <symbol id="icon-hand-thumb-up" viewBox="0 0 32 32">
        <path fill="none" stroke="#fff" style="stroke: var(--color1, #fff)" stroke-linejoin="round" stroke-linecap="round" stroke-miterlimit="4" stroke-width="1.2" d="M8.843 13.667c1.075 0 2.045-0.594 2.709-1.44 1.031-1.314 2.33-2.408 3.815-3.199 0.963-0.513 1.798-1.275 2.204-2.287 0.283-0.709 0.429-1.465 0.429-2.228v-0.845c0-0.552 0.448-1 1-1 1.657 0 3 1.343 3 3 0 1.535-0.346 2.99-0.964 4.29-0.354 0.744 0.143 1.71 0.967 1.71M22.003 11.667h4.168c1.369 0 2.594 0.925 2.739 2.286 0.060 0.563 0.091 1.135 0.091 1.714 0 3.797-1.322 7.285-3.532 10.028-0.517 0.642-1.316 0.972-2.14 0.972h-5.355c-0.645 0-1.286-0.104-1.897-0.308l-4.153-1.384c-0.612-0.204-1.252-0.308-1.897-0.308h-2.154M22.003 11.667h-3.003M7.872 24.667c0.11 0.273 0.231 0.541 0.36 0.803 0.263 0.533-0.104 1.197-0.698 1.197h-1.21c-1.185 0-2.284-0.691-2.63-1.824-0.451-1.479-0.694-3.049-0.694-4.676 0-2.070 0.393-4.048 1.109-5.864 0.407-1.032 1.448-1.636 2.557-1.636h1.404c0.629 0 0.994 0.741 0.667 1.279-1.102 1.814-1.736 3.943-1.736 6.221 0 1.591 0.31 3.11 0.872 4.5z"></path>
    </symbol>

    <symbol id="icon-clock" viewBox="0 0 32 32">
        <path fill="none" stroke="#fff" style="stroke: var(--color1, #fff)" stroke-linejoin="round" stroke-linecap="round" stroke-miterlimit="4" stroke-width="1.2" d="M16 8v8h6M28 16c0 6.627-5.373 12-12 12s-12-5.373-12-12c0-6.627 5.373-12 12-12s12 5.373 12 12z"></path>
    </symbol>

    <symbol id="icon-heart" viewBox="0 0 32 32">
        <path fill="none" stroke="#fff" style="stroke: var(--color1, #fff)" stroke-linejoin="round" stroke-linecap="round" stroke-miterlimit="4" stroke-width="1.2" d="M28 11c0-3.314-2.798-6-6.25-6-2.581 0-4.796 1.502-5.75 3.645-0.954-2.143-3.169-3.645-5.75-3.645-3.452 0-6.25 2.686-6.25 6 0 9.627 12 16 12 16s12-6.373 12-16z"></path>
    </symbol>

    <symbol id="icon-academic-cap" viewBox="0 0 32 32">
        <path fill="none" stroke="#fff" style="stroke: var(--color1, #fff)" stroke-linejoin="round" stroke-linecap="round" stroke-miterlimit="4" stroke-width="1.2" d="M5.679 13.529c-0.363 2.779-0.584 5.602-0.654 8.463 3.861 1.612 7.534 3.586 10.975 5.88 3.441-2.293 7.114-4.267 10.975-5.88-0.070-2.861-0.291-5.684-0.654-8.463M5.679 13.529c-1.168-0.392-2.349-0.754-3.544-1.084 4.327-3.033 8.968-5.649 13.865-7.788 4.897 2.14 9.538 4.755 13.865 7.788-1.195 0.33-2.377 0.691-3.544 1.084M5.679 13.529c3.583 1.204 7.033 2.699 10.321 4.456 3.288-1.757 6.738-3.252 10.321-4.456M9 20c0.552 0 1-0.448 1-1s-0.448-1-1-1c-0.552 0-1 0.448-1 1s0.448 1 1 1zM9 20v-4.901c2.255-1.401 4.592-2.685 7-3.842M6.656 26.657c1.562-1.562 2.343-3.609 2.343-5.657v-2"></path>
    </symbol>

    <symbol id="icon-squares" viewBox="0 0 32 32">
        <path fill="none" stroke="#fff" style="stroke: var(--color1, #fff)" stroke-linejoin="round" stroke-linecap="round" stroke-miterlimit="4" stroke-width="1.2" d="M5 8c0-1.657 1.343-3 3-3h3c1.657 0 3 1.343 3 3v3c0 1.657-1.343 3-3 3h-3c-1.657 0-3-1.343-3-3v-3z"></path>
        <path fill="none" stroke="#fff" style="stroke: var(--color1, #fff)" stroke-linejoin="round" stroke-linecap="round" stroke-miterlimit="4" stroke-width="1.2" d="M5 21c0-1.657 1.343-3 3-3h3c1.657 0 3 1.343 3 3v3c0 1.657-1.343 3-3 3h-3c-1.657 0-3-1.343-3-3v-3z"></path>
        <path fill="none" stroke="#fff" style="stroke: var(--color1, #fff)" stroke-linejoin="round" stroke-linecap="round" stroke-miterlimit="4" stroke-width="1.2" d="M18 8c0-1.657 1.343-3 3-3h3c1.657 0 3 1.343 3 3v3c0 1.657-1.343 3-3 3h-3c-1.657 0-3-1.343-3-3v-3z"></path>
        <path fill="none" stroke="#fff" style="stroke: var(--color1, #fff)" stroke-linejoin="round" stroke-linecap="round" stroke-miterlimit="4" stroke-width="1.2" d="M18 21c0-1.657 1.343-3 3-3h3c1.657 0 3 1.343 3 3v3c0 1.657-1.343 3-3 3h-3c-1.657 0-3-1.343-3-3v-3z"></path>
    </symbol>

    <symbol id="icon-square-stack" viewBox="0 0 32 32">
        <path fill="none" stroke="#fff" style="stroke: var(--color1, #fff)" stroke-linejoin="round" stroke-linecap="round" stroke-miterlimit="4" stroke-width="1.2" d="M8.571 13l-5.571 3 5.571 3M8.571 13l7.429 4 7.429-4M8.571 13l-5.571-3 13-7 13 7-5.571 3M23.429 13l5.571 3-5.571 3M23.429 19l5.571 3-13 7-13-7 5.571-3M23.429 19l-7.429 4-7.429-4"></path>
    </symbol>

    <symbol id="icon-trophy" viewBox="0 0 32 32">
        <path fill="none" stroke="#fff" style="stroke: var(--color1, #fff)" stroke-linejoin="round" stroke-linecap="round" stroke-miterlimit="4" stroke-width="1.2" d="M22.001 25h-12M22.001 25c2.209 0 4 1.791 4 4h-20c0-2.209 1.791-4 4-4M22.001 25v-4.5c0-0.828-0.672-1.5-1.5-1.5h-1.162M10.001 25v-4.5c0-0.828 0.672-1.5 1.5-1.5h1.162M19.338 19h-6.676M19.338 19c-0.73-1.262-1.192-2.697-1.309-4.23M12.663 19c0.73-1.262 1.192-2.697 1.309-4.23M7.001 5.648c-1.31 0.19-2.606 0.422-3.888 0.693 0.6 3.557 3.548 6.316 7.194 6.629M7.001 5.648v0.352c0 2.81 1.288 5.32 3.306 6.97M7.001 5.648v-2.021c2.941-0.414 5.945-0.628 9-0.628s6.059 0.214 9 0.628v2.021M10.307 12.97c1.050 0.859 2.298 1.485 3.665 1.8M25.001 5.648v0.352c0 2.81-1.288 5.32-3.306 6.97M25.001 5.648c1.31 0.19 2.606 0.422 3.888 0.693-0.6 3.557-3.548 6.316-7.194 6.629M21.694 12.97c-1.050 0.859-2.298 1.485-3.665 1.8M18.030 14.77c-0.652 0.15-1.331 0.23-2.029 0.23s-1.377-0.079-2.029-0.23"></path>
    </symbol>

    <symbol id="icon-lock-closed" viewBox="0 0 32 32">
        <path fill="none" stroke="#fff" style="stroke: var(--color1, #fff)" stroke-linejoin="round" stroke-linecap="round" stroke-miterlimit="4" stroke-width="1.2" d="M22 14v-5c0-3.314-2.686-6-6-6s-6 2.686-6 6v5M9 29h14c1.657 0 3-1.343 3-3v-9c0-1.657-1.343-3-3-3h-14c-1.657 0-3 1.343-3 3v9c0 1.657 1.343 3 3 3z"></path>
    </symbol>

    <symbol id="icon-lips" viewBox="0 0 24 24">
        <path fill="#fff" style="fill: var(--color1, #fff)" d="M13.523 14.51l2.205 0.81c0.664 0.245 1.405 0.158 1.995-0.235l2.272-1.509c0.105-0.070 0.178-0.204 0.085-0.289-0.041-0.036-0.090-0.064-0.142-0.081l-2.438-0.827c-3.57-1.21-7.44-1.21-11.010 0l-2.435 0.827c-0.164 0.056-0.075 0.229 0.087 0.255 0.014 0.002 0.028 0.004 0.042 0.004h0.916c0.135 0.255 0.332 0.473 0.572 0.633s0.518 0.257 0.805 0.282c1.666 0.143 3.336 0.142 4.966 0.14h0.568c0.481 0 0.994-0.003 1.511-0.009zM5.862 13.266l2.141-0.551c3.057-0.767 6.271-0.637 9.257 0.375l0.794 0.27c-0.161 0.156-0.371 0.252-0.595 0.271-1.063 0.091-3.504 0.136-5.448 0.138h-0.552c-1.641 0.001-3.283 0.002-4.917-0.138-0.132-0.011-0.261-0.050-0.377-0.112s-0.22-0.149-0.302-0.253z"></path>
        <path fill="#fff" style="fill: var(--color1, #fff); stroke: var(--color2, #9c7f47)" stroke="#9c7f47" stroke-linejoin="miter" stroke-linecap="butt" stroke-miterlimit="4" stroke-width="0.42" d="M15.122 5.79h0.019c0.774 0 1.539 0.167 2.243 0.489s1.33 0.793 1.835 1.379l0.005 0.006 0.004 0.006c0.268 0.359 0.517 0.732 0.745 1.117l2.622 4.128 0.005 0.011c0.016 0.034 0.030 0.054 0.048 0.078 0 0 0 0 0 0.001l0 0 0.002 0.002c0.028 0.037 0.078 0.106 0.082 0.216 0.004 0.087-0.021 0.186-0.057 0.305l-0.004 0.013-0.006 0.013c-1.21 2.669-3.398 4.771-6.112 5.873l-0.004 0.002v-0c-0.31 0.118-0.64 0.176-0.971 0.171h-0.414c0 0 0 0-0 0-0.442 0-0.88-0.092-1.284-0.271-0.672-0.295-1.359-0.594-2.052-0.894l-0-0-0.775-0.337-0.684-0.3-0.266-0.115c-3.080-1.335-6.19-2.682-8.434-3.888-0.112-0.054-0.207-0.138-0.274-0.243-0.068-0.107-0.104-0.231-0.105-0.357-0-0.145 0.038-0.288 0.111-0.413l0.003-0.005 2.583-3.941c0.232-0.406 0.49-0.797 0.772-1.17l0.004-0.005 0.004-0.005c0.505-0.586 1.13-1.056 1.833-1.377s1.467-0.488 2.241-0.487M15.122 5.79l-6.282 0.21M15.122 5.79c-1.125 0.001-2.22 0.355-3.131 1.011M15.122 5.79l0 0.21M8.84 5.79l-0 0.21M8.84 5.79h-0v0.21M8.84 5.79h0.020c1.125 0.001 2.22 0.355 3.131 1.011M8.84 6h0.019c1.132 0.001 2.232 0.374 3.131 1.062M11.991 6.801c-0.043 0.031-0.085 0.062-0.128 0.095l0.128 0.167M11.991 6.801c0.043 0.031 0.085 0.062 0.128 0.095l-0.128 0.167M11.991 7.062c0.899-0.688 1.999-1.061 3.131-1.062M16.475 19.232c-0.286 0.109-0.589 0.162-0.895 0.157h-0.415c-0.413 0-0.822-0.086-1.2-0.253-0.672-0.295-1.36-0.594-2.053-0.894l4.563 0.99zM16.475 19.232c2.665-1.082 4.813-3.146 6-5.765M16.475 19.232l6-5.765M22.475 13.467c0.073-0.242 0.054-0.27 0.003-0.34l-0.001-0.001c-0.019-0.026-0.041-0.058-0.066-0.109M22.475 13.467l-0.064-0.45M22.412 13.017l-2.617-4.12c-0.225-0.38-0.47-0.748-0.734-1.101M22.412 13.017l-3.352-5.221M19.060 7.796c-0.486-0.563-1.087-1.015-1.764-1.325s-1.411-0.47-2.155-0.47h-0.019M19.060 7.796l-3.938-1.796M11.892 5.469l0.099 0.053 0.099-0.053c0.932-0.5 1.973-0.761 3.031-0.759h0.019c0.928 0.001 1.845 0.203 2.689 0.59s1.594 0.952 2.2 1.655l0.032 0.037 0.029 0.039h-0l0.002 0.003c0.294 0.391 0.565 0.798 0.812 1.22l-0 0 0.004 0.007 2.643 4.162c0.135 0.206 0.22 0.44 0.247 0.685s-0.005 0.492-0.092 0.722l-0.003 0.007-0.002 0.007-0.018 0.059-0.023 0.055c-1.315 2.944-3.72 5.264-6.709 6.472-0.437 0.169-0.903 0.253-1.372 0.249v0h-0.418c-0.591 0-1.175-0.123-1.715-0.362l-0.001-0c-0.939-0.411-1.88-0.821-2.821-1.228l-0.916-0.397c-3.089-1.338-6.27-2.716-8.56-3.946v0l-0.002-0.001c-0.283-0.147-0.52-0.37-0.685-0.643s-0.252-0.586-0.251-0.905v-0c0-0.359 0.102-0.711 0.295-1.015l2.544-3.885c0.253-0.441 0.534-0.865 0.84-1.27h0l0.002-0.002 0.028-0.038 0.031-0.035 0.001-0.001c0.609-0.704 1.363-1.269 2.21-1.655s1.768-0.585 2.699-0.583h0.001c1.058-0.002 2.1 0.259 3.032 0.759z"></path>
    </symbol>

    <symbol id="icon-headphones" viewBox="0 0 24 24">
    <path fill="none" stroke="#fff" style="stroke: var(--color1, #fff)" stroke-linejoin="round" stroke-linecap="round" stroke-miterlimit="4" stroke-width="0.7547" d="M20.559 12.441c0-2.273-0.903-4.453-2.51-6.060s-3.787-2.51-6.060-2.51c-2.273 0-4.453 0.903-6.060 2.51s-2.51 3.787-2.51 6.060M20.559 12.441c0.702 0 1.374 0.279 1.87 0.775s0.775 1.169 0.775 1.87c0 0.702-0.279 1.374-0.775 1.87s-1.169 0.775-1.87 0.775M20.559 12.441v5.29M3.42 12.441c-0.702 0-1.374 0.279-1.87 0.775s-0.775 1.169-0.775 1.87c0 0.702 0.279 1.374 0.775 1.87s1.169 0.775 1.87 0.775v-5.291zM20.559 17.731c0 0.333-0.066 0.664-0.193 0.972s-0.315 0.588-0.551 0.824c-0.236 0.236-0.516 0.423-0.824 0.551s-0.638 0.193-0.972 0.193h-4.179"></path>
    <path fill="#fff" style="fill: var(--color1, #fff); stroke: var(--color1, #fff)" stroke="#fff" stroke-linejoin="round" stroke-linecap="round" stroke-miterlimit="4" stroke-width="0.7547" d="M13.841 20.271c0-0.491-0.195-0.962-0.542-1.309s-0.818-0.542-1.309-0.542-0.962 0.195-1.309 0.542c-0.347 0.347-0.542 0.818-0.542 1.309h3.703z"></path>
    </symbol>
</defs>
</svg>
