<svg aria-hidden="true" style="position: absolute; width: 0; height: 0; overflow: hidden;" version="1.1" xmlns="http://www.w3.org/2000/svg" xmlns:xlink="http://www.w3.org/1999/xlink">
<defs>

    <symbol id="icon-facebook" viewBox="0 0 32 32">
        <path d="M16 0c-8.821 0-16 7.179-16 16s7.179 16 16 16c8.821 0 16-7.179 16-16s-7.179-16-16-16zM16 2.667c7.38 0 13.333 5.953 13.333 13.333 0.003 3.192-1.141 6.279-3.225 8.697s-4.967 4.007-8.124 4.475v-9.284h3.797l0.596-3.857h-4.393v-2.107c0-1.6 0.527-3.023 2.024-3.023h2.407v-3.365c-0.423-0.057-1.317-0.181-3.008-0.181-3.531 0-5.6 1.864-5.6 6.112v2.564h-3.629v3.857h3.629v9.251c-3.114-0.512-5.944-2.115-7.984-4.522s-3.159-5.461-3.156-8.616c0-7.38 5.953-13.333 13.333-13.333z"></path>
    </symbol>

    <symbol id="icon-instagram" viewBox="0 0 32 32">
        <path d="M24.544 5.536c-0.38 0-0.751 0.113-1.067 0.324s-0.562 0.511-0.707 0.862c-0.145 0.351-0.183 0.737-0.109 1.109s0.257 0.715 0.525 0.983c0.268 0.268 0.611 0.451 0.983 0.525s0.758 0.036 1.109-0.109c0.351-0.145 0.651-0.391 0.862-0.707s0.324-0.687 0.324-1.067c0-0.509-0.202-0.998-0.562-1.358s-0.848-0.562-1.358-0.562zM31.904 9.408c-0.031-1.328-0.28-2.641-0.736-3.888-0.407-1.067-1.040-2.033-1.856-2.832-0.792-0.82-1.761-1.449-2.832-1.84-1.244-0.47-2.559-0.724-3.888-0.752-1.696-0.096-2.24-0.096-6.592-0.096s-4.896 0-6.592 0.096c-1.329 0.028-2.644 0.282-3.888 0.752-1.069 0.395-2.037 1.023-2.832 1.84-0.82 0.792-1.449 1.761-1.84 2.832-0.47 1.244-0.724 2.559-0.752 3.888-0.096 1.696-0.096 2.24-0.096 6.592s0 4.896 0.096 6.592c0.028 1.329 0.282 2.644 0.752 3.888 0.391 1.071 1.020 2.040 1.84 2.832 0.795 0.817 1.763 1.445 2.832 1.84 1.244 0.47 2.559 0.724 3.888 0.752 1.696 0.096 2.24 0.096 6.592 0.096s4.896 0 6.592-0.096c1.329-0.028 2.644-0.282 3.888-0.752 1.071-0.391 2.040-1.020 2.832-1.84 0.82-0.796 1.453-1.763 1.856-2.832 0.456-1.247 0.705-2.56 0.736-3.888 0-1.696 0.096-2.24 0.096-6.592s0-4.896-0.096-6.592zM29.024 22.4c-0.012 1.016-0.196 2.022-0.544 2.976-0.256 0.696-0.666 1.325-1.2 1.84-0.519 0.529-1.147 0.938-1.84 1.2-0.954 0.348-1.96 0.532-2.976 0.544-1.6 0.080-2.192 0.096-6.4 0.096s-4.8 0-6.4-0.096c-1.055 0.020-2.105-0.143-3.104-0.48-0.663-0.275-1.262-0.684-1.76-1.2-0.531-0.514-0.936-1.144-1.184-1.84-0.391-0.968-0.607-1.997-0.64-3.040 0-1.6-0.096-2.192-0.096-6.4s0-4.8 0.096-6.4c0.007-1.038 0.197-2.067 0.56-3.040 0.282-0.675 0.714-1.277 1.264-1.76 0.486-0.55 1.087-0.987 1.76-1.28 0.975-0.352 2.003-0.536 3.040-0.544 1.6 0 2.192-0.096 6.4-0.096s4.8 0 6.4 0.096c1.016 0.012 2.022 0.196 2.976 0.544 0.727 0.27 1.38 0.709 1.904 1.28 0.524 0.492 0.934 1.092 1.2 1.76 0.356 0.974 0.54 2.003 0.544 3.040 0.080 1.6 0.096 2.192 0.096 6.4s-0.016 4.8-0.096 6.4zM16 7.792c-1.623 0.003-3.208 0.487-4.556 1.391s-2.397 2.187-3.016 3.687c-0.619 1.5-0.779 3.15-0.461 4.741s1.102 3.052 2.25 4.199c1.149 1.146 2.611 1.926 4.203 2.242s3.241 0.152 4.74-0.47c1.499-0.622 2.78-1.674 3.681-3.023s1.382-2.936 1.382-4.558c0.002-1.080-0.209-2.149-0.622-3.147s-1.019-1.904-1.783-2.667-1.672-1.367-2.671-1.778c-0.999-0.411-2.069-0.62-3.148-0.616zM16 21.328c-1.054 0-2.084-0.312-2.96-0.898s-1.559-1.418-1.962-2.391c-0.403-0.973-0.509-2.045-0.303-3.078s0.713-1.983 1.458-2.728c0.745-0.745 1.694-1.253 2.728-1.458s2.105-0.1 3.078 0.303c0.974 0.403 1.806 1.086 2.391 1.962s0.898 1.906 0.898 2.96c0 0.7-0.138 1.392-0.406 2.039s-0.66 1.234-1.155 1.729c-0.495 0.495-1.082 0.887-1.729 1.155s-1.339 0.406-2.039 0.406z"></path>
    </symbol>

    <symbol id="icon-hand-thumb-up" viewBox="0 0 32 32">
        <path fill="none" stroke="#fff" style="stroke: var(--color1, #fff)" stroke-linejoin="round" stroke-linecap="round" stroke-miterlimit="4" stroke-width="1.2" d="M8.843 13.667c1.075 0 2.045-0.594 2.709-1.44 1.031-1.314 2.33-2.408 3.815-3.199 0.963-0.513 1.798-1.275 2.204-2.287 0.283-0.709 0.429-1.465 0.429-2.228v-0.845c0-0.552 0.448-1 1-1 1.657 0 3 1.343 3 3 0 1.535-0.346 2.99-0.964 4.29-0.354 0.744 0.143 1.71 0.967 1.71M22.003 11.667h4.168c1.369 0 2.594 0.925 2.739 2.286 0.060 0.563 0.091 1.135 0.091 1.714 0 3.797-1.322 7.285-3.532 10.028-0.517 0.642-1.316 0.972-2.14 0.972h-5.355c-0.645 0-1.286-0.104-1.897-0.308l-4.153-1.384c-0.612-0.204-1.252-0.308-1.897-0.308h-2.154M22.003 11.667h-3.003M7.872 24.667c0.11 0.273 0.231 0.541 0.36 0.803 0.263 0.533-0.104 1.197-0.698 1.197h-1.21c-1.185 0-2.284-0.691-2.63-1.824-0.451-1.479-0.694-3.049-0.694-4.676 0-2.070 0.393-4.048 1.109-5.864 0.407-1.032 1.448-1.636 2.557-1.636h1.404c0.629 0 0.994 0.741 0.667 1.279-1.102 1.814-1.736 3.943-1.736 6.221 0 1.591 0.31 3.11 0.872 4.5z"></path>
    </symbol>

    <symbol id="icon-clock" viewBox="0 0 32 32">
        <path fill="none" stroke="#fff" style="stroke: var(--color1, #fff)" stroke-linejoin="round" stroke-linecap="round" stroke-miterlimit="4" stroke-width="1.2" d="M16 8v8h6M28 16c0 6.627-5.373 12-12 12s-12-5.373-12-12c0-6.627 5.373-12 12-12s12 5.373 12 12z"></path>
    </symbol>

    <symbol id="icon-heart" viewBox="0 0 32 32">
        <path fill="none" stroke="#fff" style="stroke: var(--color1, #fff)" stroke-linejoin="round" stroke-linecap="round" stroke-miterlimit="4" stroke-width="1.2" d="M28 11c0-3.314-2.798-6-6.25-6-2.581 0-4.796 1.502-5.75 3.645-0.954-2.143-3.169-3.645-5.75-3.645-3.452 0-6.25 2.686-6.25 6 0 9.627 12 16 12 16s12-6.373 12-16z"></path>
    </symbol>

    <symbol id="icon-academic-cap" viewBox="0 0 32 32">
        <path fill="none" stroke="#fff" style="stroke: var(--color1, #fff)" stroke-linejoin="round" stroke-linecap="round" stroke-miterlimit="4" stroke-width="1.2" d="M5.679 13.529c-0.363 2.779-0.584 5.602-0.654 8.463 3.861 1.612 7.534 3.586 10.975 5.88 3.441-2.293 7.114-4.267 10.975-5.88-0.070-2.861-0.291-5.684-0.654-8.463M5.679 13.529c-1.168-0.392-2.349-0.754-3.544-1.084 4.327-3.033 8.968-5.649 13.865-7.788 4.897 2.14 9.538 4.755 13.865 7.788-1.195 0.33-2.377 0.691-3.544 1.084M5.679 13.529c3.583 1.204 7.033 2.699 10.321 4.456 3.288-1.757 6.738-3.252 10.321-4.456M9 20c0.552 0 1-0.448 1-1s-0.448-1-1-1c-0.552 0-1 0.448-1 1s0.448 1 1 1zM9 20v-4.901c2.255-1.401 4.592-2.685 7-3.842M6.656 26.657c1.562-1.562 2.343-3.609 2.343-5.657v-2"></path>
    </symbol>

    <symbol id="icon-squares" viewBox="0 0 32 32">
        <path fill="none" stroke="#fff" style="stroke: var(--color1, #fff)" stroke-linejoin="round" stroke-linecap="round" stroke-miterlimit="4" stroke-width="1.2" d="M5 8c0-1.657 1.343-3 3-3h3c1.657 0 3 1.343 3 3v3c0 1.657-1.343 3-3 3h-3c-1.657 0-3-1.343-3-3v-3z"></path>
        <path fill="none" stroke="#fff" style="stroke: var(--color1, #fff)" stroke-linejoin="round" stroke-linecap="round" stroke-miterlimit="4" stroke-width="1.2" d="M5 21c0-1.657 1.343-3 3-3h3c1.657 0 3 1.343 3 3v3c0 1.657-1.343 3-3 3h-3c-1.657 0-3-1.343-3-3v-3z"></path>
        <path fill="none" stroke="#fff" style="stroke: var(--color1, #fff)" stroke-linejoin="round" stroke-linecap="round" stroke-miterlimit="4" stroke-width="1.2" d="M18 8c0-1.657 1.343-3 3-3h3c1.657 0 3 1.343 3 3v3c0 1.657-1.343 3-3 3h-3c-1.657 0-3-1.343-3-3v-3z"></path>
        <path fill="none" stroke="#fff" style="stroke: var(--color1, #fff)" stroke-linejoin="round" stroke-linecap="round" stroke-miterlimit="4" stroke-width="1.2" d="M18 21c0-1.657 1.343-3 3-3h3c1.657 0 3 1.343 3 3v3c0 1.657-1.343 3-3 3h-3c-1.657 0-3-1.343-3-3v-3z"></path>
    </symbol>

    <symbol id="icon-square-stack" viewBox="0 0 32 32">
        <path fill="none" stroke="#fff" style="stroke: var(--color1, #fff)" stroke-linejoin="round" stroke-linecap="round" stroke-miterlimit="4" stroke-width="1.2" d="M8.571 13l-5.571 3 5.571 3M8.571 13l7.429 4 7.429-4M8.571 13l-5.571-3 13-7 13 7-5.571 3M23.429 13l5.571 3-5.571 3M23.429 19l5.571 3-13 7-13-7 5.571-3M23.429 19l-7.429 4-7.429-4"></path>
    </symbol>

    <symbol id="icon-trophy" viewBox="0 0 32 32">
        <path fill="none" stroke="#fff" style="stroke: var(--color1, #fff)" stroke-linejoin="round" stroke-linecap="round" stroke-miterlimit="4" stroke-width="1.2" d="M22.001 25h-12M22.001 25c2.209 0 4 1.791 4 4h-20c0-2.209 1.791-4 4-4M22.001 25v-4.5c0-0.828-0.672-1.5-1.5-1.5h-1.162M10.001 25v-4.5c0-0.828 0.672-1.5 1.5-1.5h1.162M19.338 19h-6.676M19.338 19c-0.73-1.262-1.192-2.697-1.309-4.23M12.663 19c0.73-1.262 1.192-2.697 1.309-4.23M7.001 5.648c-1.31 0.19-2.606 0.422-3.888 0.693 0.6 3.557 3.548 6.316 7.194 6.629M7.001 5.648v0.352c0 2.81 1.288 5.32 3.306 6.97M7.001 5.648v-2.021c2.941-0.414 5.945-0.628 9-0.628s6.059 0.214 9 0.628v2.021M10.307 12.97c1.050 0.859 2.298 1.485 3.665 1.8M25.001 5.648v0.352c0 2.81-1.288 5.32-3.306 6.97M25.001 5.648c1.31 0.19 2.606 0.422 3.888 0.693-0.6 3.557-3.548 6.316-7.194 6.629M21.694 12.97c-1.050 0.859-2.298 1.485-3.665 1.8M18.030 14.77c-0.652 0.15-1.331 0.23-2.029 0.23s-1.377-0.079-2.029-0.23"></path>
    </symbol>

    <symbol id="icon-lock-closed" viewBox="0 0 32 32">
        <path fill="none" stroke="#fff" style="stroke: var(--color1, #fff)" stroke-linejoin="round" stroke-linecap="round" stroke-miterlimit="4" stroke-width="1.2" d="M22 14v-5c0-3.314-2.686-6-6-6s-6 2.686-6 6v5M9 29h14c1.657 0 3-1.343 3-3v-9c0-1.657-1.343-3-3-3h-14c-1.657 0-3 1.343-3 3v9c0 1.657 1.343 3 3 3z"></path>
    </symbol>


    <symbol id="icon-lips" viewBox="0 0 32 32">
<path fill="none" stroke-linejoin="miter" stroke-linecap="butt" stroke-miterlimit="4" stroke-width="2" stroke="black" style="stroke: var(--color1, white)" d="M2.661 17.696c-0.499-0.25-1.198-1.123 0-2.62 1.497-1.871 3.743-8.609 9.732-8.235 4.163 0.26 3.743 1.497 3.743 1.123s4.042-2.246 6.737-0.749c4.117 2.287 6.737 8.609 7.112 9.732s-6.363 9.732-11.229 8.235c-4.866-1.497-16.095-7.486-16.095-7.486z"></path>
<path fill="none" stroke-linejoin="miter" stroke-linecap="butt" stroke-miterlimit="4" stroke-width="1.3333" stroke="black" style="stroke: var(--color1, white)" d="M6.029 16.641c0.343-0.754 6.107-2.785 9.836-2.615 3.557 0.162 8.318 1.662 10.106 2.048-0.239 0.15-2.54 1.227-2.54 1.227M18.533 17.098c-5.231-1.095-11.884 0.269-12.504-1.024M18.533 17.098c2.245 0.47 3.813 0.519 4.898 0.203M18.533 17.098c0 0 2.54 0.888 2.827 0.887s2.071-0.684 2.071-0.684"></path>
</symbol>
    <symbol id="icon-headphone" viewBox="0 0 32 32">
    <path fill="none" stroke="#fff" style="stroke: var(--color1, #fff)" stroke-linejoin="round" stroke-linecap="round" stroke-miterlimit="4" stroke-width="1.0063" d="M27.412 16.588c0-3.030-1.204-5.937-3.347-8.080s-5.049-3.347-8.080-3.347c-3.030 0-5.937 1.204-8.080 3.347s-3.347 5.049-3.347 8.080M27.412 16.588c0.935 0 1.833 0.372 2.494 1.033s1.033 1.558 1.033 2.494c0 0.935-0.372 1.833-1.033 2.494s-1.559 1.033-2.494 1.033M27.412 16.588v7.054M4.559 16.588c-0.935 0-1.833 0.372-2.494 1.033s-1.033 1.558-1.033 2.494c0 0.935 0.372 1.833 1.033 2.494s1.559 1.033 2.494 1.033v-7.054zM27.412 23.642c0 0.445-0.088 0.885-0.258 1.296s-0.42 0.784-0.734 1.099c-0.314 0.314-0.688 0.564-1.099 0.734s-0.851 0.258-1.296 0.258h-5.571"></path>
    <path fill="#fff" style="fill: var(--color1, #fff); stroke: var(--color1, #fff)" stroke="#fff" stroke-linejoin="round" stroke-linecap="round" stroke-miterlimit="4" stroke-width="1.0063" d="M18.455 27.028c0-0.655-0.26-1.283-0.723-1.746s-1.091-0.723-1.746-0.723-1.283 0.26-1.746 0.723c-0.463 0.463-0.723 1.091-0.723 1.746h4.937z"></path>
    </symbol>
    <symbol id="icon-rateUp" viewBox="0 0 32 32">
    <path fill="none" stroke="#fff" style="stroke: var(--color1, #fff)" stroke-linejoin="round" stroke-linecap="round" stroke-miterlimit="4" stroke-width="1.2" d="M8.843 13.667c1.075 0 2.045-0.594 2.709-1.44 1.031-1.314 2.33-2.408 3.815-3.199 0.963-0.513 1.798-1.275 2.204-2.287 0.283-0.709 0.429-1.465 0.429-2.228v-0.845c0-0.552 0.448-1 1-1 1.657 0 3 1.343 3 3 0 1.535-0.346 2.99-0.964 4.29-0.354 0.744 0.143 1.71 0.967 1.71M22.003 11.667h4.168c1.369 0 2.594 0.925 2.739 2.286 0.060 0.563 0.091 1.135 0.091 1.714 0 3.797-1.322 7.285-3.532 10.028-0.517 0.642-1.316 0.972-2.14 0.972h-5.355c-0.645 0-1.286-0.104-1.897-0.308l-4.153-1.384c-0.612-0.204-1.252-0.308-1.897-0.308h-2.154M22.003 11.667h-3.003M7.872 24.667c0.11 0.273 0.231 0.541 0.36 0.803 0.263 0.533-0.104 1.197-0.698 1.197h-1.21c-1.185 0-2.284-0.691-2.63-1.824-0.451-1.479-0.694-3.049-0.694-4.676 0-2.070 0.393-4.048 1.109-5.864 0.407-1.032 1.448-1.636 2.557-1.636h1.404c0.629 0 0.994 0.741 0.667 1.279-1.102 1.814-1.736 3.943-1.736 6.221 0 1.591 0.31 3.11 0.872 4.5z"></path>
    </symbol>
    <symbol id="icon-team" viewBox="0 0 32 32">
    <path fill="none" stroke="#fff" style="stroke: var(--color1, #fff)" stroke-linejoin="round" stroke-linecap="round" stroke-miterlimit="4" stroke-width="1.2" d="M24 24.959c0.33 0.027 0.664 0.041 1.001 0.041 1.398 0 2.74-0.239 3.987-0.678 0.008-0.106 0.013-0.213 0.013-0.322 0-2.209-1.791-4-4-4-0.837 0-1.614 0.257-2.256 0.696M24 24.959c0 0.014 0 0.027 0 0.041 0 0.3-0.017 0.596-0.049 0.888-2.342 1.344-5.057 2.112-7.951 2.112s-5.609-0.768-7.951-2.112c-0.032-0.291-0.049-0.588-0.049-0.888 0-0.014 0-0.027 0-0.041M24 24.959c-0.008-1.569-0.467-3.031-1.255-4.263M22.745 20.696c-1.421-2.223-3.911-3.696-6.745-3.696s-5.323 1.473-6.744 3.696M9.255 20.696c-0.642-0.439-1.418-0.696-2.255-0.696-2.209 0-4 1.791-4 4 0 0.108 0.004 0.216 0.013 0.322 1.248 0.439 2.589 0.678 3.987 0.678 0.336 0 0.67-0.014 0.999-0.041M9.255 20.696c-0.788 1.232-1.248 2.694-1.255 4.263M20 9c0 2.209-1.791 4-4 4s-4-1.791-4-4 1.791-4 4-4c2.209 0 4 1.791 4 4zM28 13c0 1.657-1.343 3-3 3s-3-1.343-3-3 1.343-3 3-3c1.657 0 3 1.343 3 3zM10 13c0 1.657-1.343 3-3 3s-3-1.343-3-3c0-1.657 1.343-3 3-3s3 1.343 3 3z"></path>
    </symbol>

    <symbol id="icon-non-surgery" viewBox="0 0 33 32">
    <path fill="#fff" style="fill: var(--color1, #fff)" d="M26.804 6.952c0.168 0.168 0.262 0.396 0.262 0.634s-0.094 0.466-0.262 0.634l-9.403 9.412c-0.055 0.056-0.118 0.105-0.186 0.145v2.359c-0 0.186-0.058 0.368-0.166 0.519s-0.26 0.266-0.436 0.327l-12.359 4.303c-0.188 0.065-0.392 0.065-0.58 0.001s-0.35-0.189-0.459-0.355c-0.11-0.166-0.161-0.364-0.146-0.562s0.095-0.386 0.229-0.534l8.776-9.681c0.084-0.093 0.186-0.166 0.3-0.217s0.238-0.077 0.362-0.077h0.568c0.039-0.068 0.088-0.131 0.143-0.186l9.403-9.412c0.168-0.168 0.396-0.262 0.633-0.262s0.465 0.094 0.633 0.262l2.687 2.689zM15.346 14.309l1.42 1.422 8.137-8.145-1.42-1.422-8.137 8.144zM6.984 22.436l8.44-2.937v-1.682l-2.162-2.164h-0.131l-6.147 6.782z"></path>
    <path fill="#fff" style="fill: var(--color1, #fff)" d="M23.733 28c-2.577 0-4.667-2.089-4.667-4.667s2.089-4.667 4.667-4.667c2.577 0 4.667 2.089 4.667 4.667s-2.089 4.667-4.667 4.667zM22.73 21.711c-0.171-0.171-0.448-0.171-0.619 0s-0.171 0.448 0 0.619l1.003 1.003-1.003 1.003c-0.171 0.171-0.171 0.448 0 0.619s0.448 0.171 0.619 0l1.003-1.003 1.003 1.003c0.171 0.171 0.448 0.171 0.619 0s0.171-0.448 0-0.619l-1.003-1.003 1.003-1.003c0.171-0.171 0.171-0.448 0-0.619s-0.448-0.171-0.619 0l-1.003 1.003-1.003-1.003z"></path>
    </symbol>
    <symbol id="icon-prevent" viewBox="0 0 33 32">
    <path fill="#fff" style="fill: var(--color1, #fff); stroke: var(--color1, #fff)" stroke="#fff" stroke-linejoin="miter" stroke-linecap="butt" stroke-miterlimit="4" stroke-width="0.8" d="M20.195 14.386c0.042-0.048 0.077-0.102 0.102-0.161 0.031-0.073 0.048-0.152 0.049-0.232s-0.014-0.159-0.045-0.232c-0.030-0.074-0.075-0.141-0.131-0.197s-0.123-0.101-0.197-0.131c-0.074-0.030-0.153-0.045-0.232-0.045s-0.158 0.017-0.232 0.049c-0.073 0.031-0.139 0.077-0.195 0.134l-0.005 0.005-0-0-4.243 4.243-1.586-1.586c-0.055-0.059-0.121-0.106-0.195-0.139s-0.153-0.050-0.234-0.052c-0.081-0.001-0.161 0.013-0.235 0.044s-0.143 0.075-0.2 0.132c-0.057 0.057-0.102 0.125-0.132 0.2s-0.045 0.155-0.044 0.235c0.001 0.081 0.019 0.16 0.052 0.234s0.080 0.14 0.139 0.195l0.005 0.005 2.005 2.005c0.112 0.112 0.265 0.175 0.424 0.175s0.311-0.063 0.424-0.175l4.704-4.704zM20.195 14.386v0zM22.444 7.946c-0.044-0.039-0.082-0.085-0.112-0.136-0.041-0.068-0.068-0.144-0.080-0.223s-0.007-0.16 0.013-0.237 0.055-0.15 0.104-0.213c0.048-0.064 0.109-0.117 0.178-0.156s0.146-0.065 0.225-0.075 0.16-0.004 0.237 0.018c0.077 0.022 0.149 0.059 0.211 0.108l-0 0 0.007 0.005c1.812 1.381 3.164 3.278 3.876 5.442s0.751 4.494 0.112 6.68c-0.639 2.187-1.926 4.129-3.691 5.569s-3.926 2.312-6.196 2.499l-0.861 0.071 1.6 1.598 0.075 0.087c0.084 0.12 0.121 0.266 0.105 0.412-0.017 0.15-0.090 0.288-0.205 0.387s-0.262 0.15-0.413 0.145c-0.151-0.005-0.294-0.067-0.401-0.173-0-0-0-0-0.001-0.001l-2.656-2.656-0.076-0.088c-0.080-0.114-0.118-0.251-0.108-0.39 0.011-0.143 0.072-0.278 0.174-0.38v0l0.299-0.299c0.523 0.080 1.051 0.12 1.579 0.117l-0.070 0.070 1.132-0.125c2.001-0.22 3.889-1.035 5.422-2.339s2.64-3.038 3.178-4.977c0.538-1.939 0.482-3.995-0.159-5.903s-1.841-3.579-3.442-4.798l-0.056-0.043zM17.939 6.057c-0.524-0.080-1.052-0.12-1.581-0.117l0.072-0.072-1.132 0.125c-1.967 0.217-3.826 1.009-5.346 2.277s-2.632 2.955-3.198 4.852c-0.566 1.896-0.56 3.917 0.016 5.81 0.576 1.891 1.695 3.571 3.219 4.83 0.116 0.103 0.187 0.246 0.2 0.4 0.013 0.156-0.036 0.31-0.135 0.431v0c-0.1 0.12-0.242 0.197-0.398 0.214-0.154 0.017-0.308-0.027-0.431-0.121-1.726-1.426-2.988-3.334-3.625-5.48-0.638-2.148-0.62-4.438 0.050-6.576s1.963-4.028 3.713-5.428c1.75-1.4 3.877-2.246 6.111-2.431l0.861-0.071-1.611-1.609c0-0-0-0-0-0-0.056-0.056-0.1-0.122-0.13-0.195s-0.046-0.151-0.046-0.23 0.016-0.157 0.046-0.23c0.030-0.073 0.074-0.139 0.13-0.195v0c0.056-0.056 0.122-0.1 0.195-0.13s0.151-0.046 0.23-0.046c0.079 0 0.157 0.016 0.23 0.046s0.139 0.074 0.195 0.13v0l2.667 2.667c0.112 0.112 0.175 0.265 0.175 0.424s-0.063 0.311-0.175 0.424l-0 0-0.299 0.3zM21.774 21.374c-1.425 1.425-3.358 2.226-5.374 2.226s-3.949-0.801-5.374-2.226c-1.425-1.425-2.226-3.358-2.226-5.374s0.801-3.949 2.226-5.374c1.425-1.425 3.358-2.226 5.374-2.226s3.949 0.801 5.374 2.226 2.226 3.358 2.226 5.374c0 2.016-0.801 3.949-2.226 5.374zM11.874 20.526c1.2 1.2 2.828 1.874 4.526 1.874s3.325-0.674 4.525-1.874 1.875-2.828 1.875-4.526c0-1.697-0.674-3.325-1.875-4.525s-2.828-1.875-4.525-1.875c-1.697 0-3.325 0.674-4.526 1.875s-1.874 2.828-1.874 4.525 0.674 3.325 1.874 4.526z"></path>
    </symbol>
    <symbol id="icon-puzzle-piece" viewBox="0 0 33 32">
    <path fill="none" stroke="#fff" style="stroke: var(--color1, #fff)" stroke-linejoin="round" stroke-linecap="round" stroke-miterlimit="4" stroke-width="1.2" d="M19.4 8.116c0-0.474 0.248-0.902 0.535-1.278 0.294-0.387 0.465-0.846 0.465-1.338 0-1.381-1.343-2.5-3-2.5s-3 1.119-3 2.5c0 0.492 0.171 0.951 0.465 1.338 0.287 0.377 0.535 0.805 0.535 1.278v0c0 0.482-0.394 0.871-0.876 0.857-1.872-0.054-3.723-0.188-5.551-0.399 0.248 2.15 0.39 4.333 0.42 6.543 0.007 0.488-0.39 0.884-0.878 0.884v0c-0.474 0-0.902-0.248-1.278-0.535-0.387-0.294-0.846-0.465-1.338-0.465-1.381 0-2.5 1.343-2.5 3s1.119 3 2.5 3c0.492 0 0.951-0.171 1.338-0.465 0.377-0.287 0.805-0.535 1.278-0.535v0c0.412 0 0.74 0.348 0.709 0.759-0.168 2.283-0.455 4.532-0.856 6.742 2.024 0.253 4.077 0.412 6.155 0.472 0.482 0.014 0.876-0.375 0.876-0.857v0c0-0.474-0.248-0.902-0.535-1.278-0.294-0.387-0.465-0.846-0.465-1.338 0-1.381 1.343-2.5 3-2.5s3 1.119 3 2.5c0 0.492-0.171 0.951-0.465 1.338-0.287 0.377-0.535 0.805-0.535 1.278v0c0 0.444 0.371 0.798 0.814 0.772 2.452-0.144 4.866-0.426 7.236-0.839 0.359-2.064 0.62-4.163 0.776-6.29 0.030-0.412-0.297-0.76-0.71-0.76v0c-0.474 0-0.902 0.248-1.278 0.535-0.387 0.294-0.846 0.465-1.338 0.465-1.381 0-2.5-1.343-2.5-3s1.119-3 2.5-3c0.492 0 0.951 0.171 1.338 0.465 0.377 0.287 0.805 0.535 1.278 0.535v0c0.488 0 0.885-0.396 0.878-0.884-0.033-2.417-0.199-4.801-0.493-7.146-2.514 0.456-5.080 0.766-7.688 0.919-0.443 0.026-0.814-0.328-0.814-0.772v0z"></path>
    </symbol>
    <symbol id="icon-skin" viewBox="0 0 32 32">
    <path d="M30 6.614l-1.315 0.437c-1.842 0.577-3.755 0.896-5.685 0.949-1.734 0-3.322-0.907-5.004-1.868-1.834-1.048-3.73-2.132-5.996-2.132-2.877 0-6.085 2.206-8 3.772v-5.772h-2v26c0.001 0.53 0.211 1.039 0.586 1.414s0.883 0.586 1.414 0.586h26v-23.386zM4 20.294c1.874-2.918 5.56-7.294 8-7.294 1.638 0 2.96 1.102 4.36 2.269 1.537 1.28 3.278 2.731 5.64 2.731 2.236-0.107 4.362-1.003 6-2.529v4.956c-1.844 1.001-3.902 1.54-6 1.573-1.605-0.043-3.189-0.364-4.684-0.949-1.698-0.656-3.496-1.012-5.316-1.051-2.927 0-6.068 2.959-8 5.158v-4.864zM12 6c1.734 0 3.322 0.907 5.004 1.868 1.834 1.048 3.73 2.132 5.996 2.132 1.688-0.028 3.366-0.256 5-0.678v3.321c-0.683 0.803-3.084 3.357-6 3.357-1.638 0-2.96-1.102-4.36-2.269-1.537-1.28-3.278-2.731-5.64-2.731-2.936 0-6.063 3.34-8 5.845v-6.421c1.546-1.458 5.259-4.424 8-4.424zM4.249 28c1.613-2.091 5.161-6 7.751-6 1.605 0.043 3.189 0.364 4.684 0.949 1.698 0.656 3.496 1.012 5.316 1.051 2.072-0.020 4.116-0.476 6-1.34v5.34h-23.751z"></path>
    </symbol>
    <symbol id="icon-Group" viewBox="0 0 33 32">
    <path fill="none" stroke="#fff" style="stroke: var(--color1, #fff)" stroke-linejoin="round" stroke-linecap="round" stroke-miterlimit="4" stroke-width="1.5" d="M16.5 31c8.284 0 15-6.716 15-15s-6.716-15-15-15c-8.284 0-15 6.716-15 15s6.716 15 15 15z"></path>
    <path fill="#fff" style="fill: var(--color1, #fff)" d="M22.275 19.333c-0.585 1.014-1.427 1.856-2.441 2.441s-2.164 0.893-3.334 0.892c-1.171 0.001-2.321-0.307-3.335-0.892s-1.855-1.427-2.441-2.441zM19.833 12.667l1.667-1.667 1.667 1.667zM13.166 12.667l-1.667-1.667-1.667 1.667z"></path>
    <path fill="none" stroke="#fff" style="stroke: var(--color1, #fff)" stroke-linejoin="round" stroke-linecap="round" stroke-miterlimit="4" stroke-width="1.5" d="M22.275 19.333c-0.585 1.014-1.427 1.856-2.441 2.441s-2.164 0.893-3.334 0.892c-1.171 0.001-2.321-0.307-3.335-0.892s-1.855-1.427-2.441-2.441M19.833 12.667l1.667-1.667 1.667 1.667M13.166 12.667l-1.667-1.667-1.667 1.667"></path>
    </symbol>
    <symbol id="icon-infinit" viewBox="0 0 33 32">
    <path fill="none" stroke="#fff" style="stroke: var(--color1, #fff)" stroke-linejoin="miter" stroke-linecap="round" stroke-miterlimit="10" stroke-width="1.6" d="M14.4 19c-1.438 1.599-3.531 3-5.875 3-3.382 0-6.125-2.688-6.125-6s2.743-6 6.125-6c4.875 0 7.875 6 7.875 6s3 6 7.875 6c3.382 0 6.125-2.688 6.125-6s-2.742-6-6.125-6c-2.344 0-4.438 1.401-5.875 3"></path>
    </symbol>
    <symbol id="icon-heart" viewBox="0 0 32 32">
    <path fill="#fff" style="fill: var(--color1, #fff)" d="M28.64 17.831c-0.342-0.264-0.741-0.445-1.165-0.529s-0.862-0.069-1.279 0.044l-0.54 0.125c2.719-2.528 4.094-5.032 4.094-7.471 0-3.17-2.549-5.75-5.682-5.75-0.884-0.006-1.757 0.195-2.55 0.585s-1.484 0.96-2.018 1.665c-0.534-0.704-1.225-1.274-2.018-1.665s-1.666-0.591-2.55-0.585c-3.134 0-5.682 2.58-5.682 5.75 0 1.422 0.454 2.811 1.411 4.295-0.785 0.121-1.51 0.49-2.070 1.054l-2.901 2.901h-3.69c-0.464 0-0.909 0.184-1.237 0.513s-0.513 0.773-0.513 1.237v5c0 0.464 0.184 0.909 0.513 1.237s0.773 0.513 1.237 0.513h13c0.062 0 0.123-0.008 0.182-0.022l8-2c0.038-0.010 0.075-0.023 0.111-0.038l4.894-2.084c0.429-0.214 0.796-0.534 1.068-0.93s0.437-0.854 0.483-1.331c0.045-0.477-0.032-0.958-0.224-1.398s-0.493-0.823-0.874-1.114v-0.002zM14.932 5.75c0.825-0.011 1.634 0.224 2.324 0.676s1.23 1.099 1.551 1.859c0.056 0.138 0.153 0.255 0.276 0.338s0.269 0.127 0.418 0.127c0.149 0 0.294-0.044 0.418-0.127s0.22-0.2 0.276-0.338c0.32-0.76 0.86-1.407 1.551-1.859s1.5-0.687 2.324-0.676c2.265 0 4.18 1.946 4.18 4.25 0 2.53-2.022 5.375-5.85 8.219l-1.859 0.427c0.185-0.492 0.249-1.021 0.184-1.543s-0.254-1.020-0.553-1.452c-0.299-0.432-0.698-0.786-1.164-1.030s-0.983-0.371-1.509-0.371h-5.041c-1.164-1.541-1.709-2.899-1.709-4.25 0-2.304 1.915-4.25 4.182-4.25zM1.75 25v-5c0-0.066 0.026-0.13 0.073-0.177s0.11-0.073 0.177-0.073h3.25v5.5h-3.25c-0.066 0-0.13-0.026-0.177-0.073s-0.073-0.11-0.073-0.177zM27.535 21.25l-4.775 2.034-7.852 1.966h-8.158v-5.939l2.901-2.902c0.208-0.21 0.456-0.376 0.73-0.489s0.566-0.171 0.862-0.17h6.258c0.464 0 0.909 0.184 1.237 0.513s0.513 0.773 0.513 1.237c0 0.464-0.184 0.909-0.513 1.237s-0.773 0.513-1.237 0.513h-3.5c-0.199 0-0.39 0.079-0.53 0.22s-0.22 0.331-0.22 0.53c0 0.199 0.079 0.39 0.22 0.53s0.331 0.22 0.53 0.22h4c0.056 0 0.113-0.006 0.168-0.019l8.405-1.934c0.315-0.086 0.651-0.052 0.943 0.094s0.52 0.396 0.639 0.7c0.119 0.304 0.122 0.642 0.008 0.948s-0.338 0.559-0.627 0.71z"></path>
    </symbol>
    <symbol id="icon-hand-thumb-up" viewBox="0 0 32 32">
    <path fill="#fff" style="fill: var(--color1, #fff)" d="M3 20.167c0-2.070 0.393-4.048 1.109-5.864 0.407-1.032 1.448-1.636 2.557-1.636h1.404c0.629 0 0.994 0.741 0.667 1.279-1.102 1.814-1.736 3.943-1.736 6.221 0 1.591 0.31 3.11 0.872 4.5 0.11 0.273 0.231 0.541 0.36 0.803 0.263 0.533-0.104 1.197-0.698 1.197h-1.21c-1.185 0-2.284-0.691-2.63-1.824-0.451-1.479-0.694-3.049-0.694-4.676z"></path>
    <path fill="none" stroke="#fff" style="stroke: var(--color1, #fff)" stroke-linejoin="round" stroke-linecap="round" stroke-miterlimit="4" stroke-width="1.2" d="M8.843 13.667c1.075 0 2.045-0.594 2.709-1.44 1.031-1.314 2.33-2.408 3.815-3.199 0.963-0.513 1.798-1.275 2.204-2.287 0.283-0.709 0.429-1.465 0.429-2.228v-0.845c0-0.552 0.448-1 1-1 1.657 0 3 1.343 3 3 0 1.535-0.346 2.99-0.964 4.29-0.354 0.744 0.143 1.71 0.967 1.71M22.003 11.667h4.168c1.369 0 2.594 0.925 2.739 2.286 0.060 0.563 0.091 1.135 0.091 1.714 0 3.797-1.322 7.285-3.532 10.028-0.517 0.642-1.316 0.972-2.14 0.972h-5.355c-0.645 0-1.286-0.104-1.897-0.308l-4.153-1.384c-0.612-0.204-1.252-0.308-1.897-0.308h-2.154M22.003 11.667h-3.003M7.872 24.667c0.11 0.273 0.231 0.541 0.36 0.803 0.263 0.533-0.104 1.197-0.698 1.197h-1.21c-1.185 0-2.284-0.691-2.63-1.824-0.451-1.479-0.694-3.049-0.694-4.676 0-2.070 0.393-4.048 1.109-5.864 0.407-1.032 1.448-1.636 2.557-1.636h1.404c0.629 0 0.994 0.741 0.667 1.279-1.102 1.814-1.736 3.943-1.736 6.221 0 1.591 0.31 3.11 0.872 4.5z"></path>
    </symbol>
    <symbol id="icon-cool" viewBox="0 0 32 32">
    <path fill="#fff" style="fill: var(--color1, #fff)" d="M26.499 11.959c-0.002-0.050-0.002-0.1-0.002-0.151v-0.198c0-0.154-0.017-0.184-0.099-0.226-0.059-0.030-0.119-0.058-0.179-0.086-1.78-3.864-5.685-6.548-10.219-6.548s-8.439 2.684-10.22 6.548c-0.060 0.028-0.12 0.056-0.179 0.086-0.082 0.042-0.098 0.072-0.098 0.226v0.198c0 0.067-0.001 0.113-0.002 0.152-0.497 1.289-0.752 2.659-0.751 4.041 0 6.213 5.037 11.25 11.25 11.25s11.25-5.037 11.25-11.25c0.001-1.382-0.254-2.752-0.751-4.041zM16 5.688c3.854 0 7.22 2.127 8.989 5.268-1.404-0.234-3.298-0.22-4.3-0.133-1.289 0.114-2.365 0.403-3.246 0.855-0.824 0.412-2.061 0.412-2.886 0-0.881-0.451-1.958-0.741-3.245-0.855-1.002-0.087-2.896-0.102-4.3 0.133 1.769-3.141 5.134-5.268 8.989-5.268zM16 26.312c-5.686 0-10.313-4.626-10.313-10.312 0-1.14 0.189-2.238 0.532-3.264 0.223 0.4 0.374 0.957 0.472 1.63 0.224 1.58 1 2.57 2.258 3.043 1.174 0.438 2.469 0.424 3.634-0.039 0.634-0.254 1.191-0.653 1.633-1.304 0.775-1.139 0.543-1.851 0.943-2.83 0.35-0.854 1.328-0.854 1.677 0 0.4 0.979 0.168 1.691 0.943 2.83 0.442 0.65 0.999 1.050 1.633 1.304 1.165 0.463 2.46 0.477 3.634 0.039 1.259-0.473 2.034-1.463 2.258-3.043 0.098-0.672 0.249-1.23 0.473-1.63 0.353 1.052 0.533 2.155 0.532 3.264 0.001 5.686-4.625 10.312-10.312 10.312z"></path>
    <path fill="#fff" style="fill: var(--color1, #fff)" d="M20.719 19.855c-3.041 2.121-6.414 2.109-9.438 0-0.364-0.254-0.692 0.185-0.445 0.592 0.921 1.518 2.781 2.868 5.164 2.868s4.243-1.352 5.164-2.868c0.247-0.406-0.081-0.845-0.445-0.592z"></path>
    </symbol>

    <symbol id="icon-alert-triangle" viewBox="0 0 24 24">
<path d="M11.148 4.374c0.073-0.123 0.185-0.242 0.334-0.332 0.236-0.143 0.506-0.178 0.756-0.116s0.474 0.216 0.614 0.448l8.466 14.133c0.070 0.12 0.119 0.268 0.128 0.434-0.015 0.368-0.119 0.591-0.283 0.759-0.18 0.184-0.427 0.298-0.693 0.301l-16.937-0.001c-0.152-0.001-0.321-0.041-0.481-0.134-0.239-0.138-0.399-0.359-0.466-0.607s-0.038-0.519 0.092-0.745zM9.432 3.346l-8.47 14.14c-0.422 0.731-0.506 1.55-0.308 2.29s0.68 1.408 1.398 1.822c0.464 0.268 0.976 0.4 1.475 0.402h16.943c0.839-0.009 1.587-0.354 2.123-0.902s0.864-1.303 0.855-2.131c-0.006-0.536-0.153-1.044-0.406-1.474l-8.474-14.147c-0.432-0.713-1.11-1.181-1.854-1.363s-1.561-0.081-2.269 0.349c-0.429 0.26-0.775 0.615-1.012 1.014zM11 9v4c0 0.552 0.448 1 1 1s1-0.448 1-1v-4c0-0.552-0.448-1-1-1s-1 0.448-1 1zM12 18c0.552 0 1-0.448 1-1s-0.448-1-1-1-1 0.448-1 1 0.448 1 1 1z"></path>
</symbol>

</svg>
</defs>
</svg>
